<svg
  width="32"
  height="32"
  viewBox="0 0 32 32"
  fill="none"
  xmlns="http://www.w3.org/2000/svg"
>
<path
    d="M11.3246 6C5.89826 6 1.5 10.4768 1.5 16C1.5 21.5232 5.89826 26 11.3246 26C16.7509 26 21.1491 21.5232 21.1491 16C21.1491 10.4768 16.7509 6 11.3246 6ZM11.3246 19C9.69683 19 8.37719 17.6568 8.37719 16C8.37719 14.3432 9.69683 13 11.3246 13C12.9523 13 14.2719 14.3432 14.2719 16C14.2743 17.6544 12.9578 18.9976 11.3324 19C11.3301 19 11.3277 19 11.3246 19Z"
    fill="white"
  />
<path
    d="M22.368 13.5C24.8642 14.2312 27.8108 13.5 27.8108 13.5C26.9557 17.3 24.2441 19.68 20.3339 19.9696C18.784 23.6312 15.2417 26.0024 11.3252 26L14.2726 16.4648C17.3025 6.664 18.8555 6 26.0408 6H30.9743C30.1491 9.7 27.3046 12.5264 22.368 13.5Z"
    fill="white"
  />
</svg>
